<svg width="41" height="40" viewBox="0 0 41 40" fill="none" xmlns="http://www.w3.org/2000/svg">
<path id="Vector" d="M20.0881 0C8.99306 0 0 8.91223 0 19.9076C0 30.9029 8.99306 39.8151 20.0881 39.8151C31.1832 39.8151 40.1762 30.9029 40.1762 19.9076C40.1762 8.91223 31.1832 0 20.0881 0ZM25.9079 12.9H24.148C22.5232 12.9 22.1181 13.7029 22.1181 14.7779V17.3918H25.7054L25.0978 21.1476H22.1226V30.5996H17.6576V21.1476H14.2728V17.3918H17.6576V14.4433C17.6576 11.089 19.8225 9.21555 22.9328 9.21555C23.878 9.21555 24.9627 9.34937 25.9079 9.48319V12.9044V12.9Z" fill="#16384E"/>
</svg>
