<svg width="41" height="40" viewBox="0 0 41 40" fill="none" xmlns="http://www.w3.org/2000/svg">
<g id="Group">
<path id="Vector" d="M28.1935 14.0146C28.0087 13.55 27.7923 13.2149 27.4362 12.862C27.08 12.5091 26.7419 12.2946 26.2731 12.1115C25.9125 11.973 25.376 11.8121 24.3933 11.763C23.3248 11.7183 23.0048 11.7049 20.3045 11.7049H19.3984C17.5095 11.7049 17.1489 11.7183 16.2157 11.763C15.2284 11.8077 14.6875 11.973 14.3358 12.1115C13.867 12.2946 13.5289 12.5091 13.1728 12.862C12.8166 13.2149 12.6002 13.55 12.4154 14.0146C12.2757 14.372 12.1134 14.9037 12.0638 15.8776C12.0187 16.9364 12.0052 17.2536 12.0052 19.9296C12.0052 22.6056 12.0187 22.9273 12.0638 23.9816C12.1089 24.96 12.2757 25.4961 12.4154 25.8446C12.6002 26.3092 12.8166 26.6443 13.1728 26.9972C13.5289 27.3501 13.867 27.5646 14.3358 27.7478C14.6965 27.8862 15.2329 28.0471 16.2157 28.0962C17.2841 28.1409 17.6042 28.1543 20.3045 28.1543C23.0048 28.1543 23.3294 28.1409 24.3933 28.0962C25.3805 28.0515 25.9215 27.8862 26.2731 27.7478C26.751 27.5646 27.08 27.3501 27.4362 26.9972C27.7923 26.6443 28.0087 26.3092 28.1935 25.8446C28.3333 25.4872 28.4956 24.9556 28.5451 23.9816C28.5902 22.9228 28.6038 22.6056 28.6038 19.9296C28.6038 17.2536 28.5902 16.9319 28.5451 15.8776C28.5001 14.8992 28.3333 14.3631 28.1935 14.0146ZM20.2955 25.0851C17.4283 25.0851 15.0977 22.7843 15.0977 19.9341C15.0977 17.0838 17.4193 14.783 20.2955 14.783C23.1716 14.783 25.4932 17.0838 25.4932 19.9341C25.4932 22.7843 23.1716 25.0851 20.2955 25.0851ZM25.7006 15.7838C25.0289 15.7838 24.4834 15.2432 24.4834 14.5775C24.4834 13.9119 25.0289 13.3713 25.7006 13.3713C26.3723 13.3713 26.9178 13.9119 26.9178 14.5775C26.9178 15.2432 26.3723 15.7838 25.7006 15.7838Z" fill="#16384E"/>
<path id="Vector_2" d="M20.2957 23.2758C22.158 23.2758 23.6677 21.7796 23.6677 19.9341C23.6677 18.0885 22.158 16.5924 20.2957 16.5924C18.4334 16.5924 16.9237 18.0885 16.9237 19.9341C16.9237 21.7796 18.4334 23.2758 20.2957 23.2758Z" fill="#16384E"/>
<path id="Vector_3" d="M20.2956 0C9.18326 0 0.176208 8.92609 0.176208 19.9385C0.176208 30.9509 9.18326 39.877 20.2956 39.877C31.4079 39.877 40.4149 30.9509 40.4149 19.9385C40.4149 8.92609 31.4079 0 20.2956 0ZM30.3665 24.0754C30.3169 25.1432 30.1411 25.8714 29.8977 26.5102C29.6317 27.1714 29.2891 27.7343 28.7256 28.2883C28.1621 28.8467 27.6031 29.1907 26.9359 29.4498C26.2867 29.7 25.5519 29.8653 24.4745 29.9145C23.3881 29.9636 23.0455 29.977 20.2956 29.977C17.5457 29.977 17.1985 29.9636 16.1166 29.9145C15.0437 29.8653 14.3044 29.7 13.6597 29.4498C12.9925 29.1952 12.4245 28.8467 11.8655 28.2883C11.2975 27.7299 10.9549 27.1669 10.6935 26.5102C10.441 25.8714 10.2742 25.1476 10.2246 24.0754C10.175 22.9988 10.1615 22.6592 10.1615 19.934C10.1615 17.2089 10.1795 16.8649 10.2246 15.7927C10.2697 14.7294 10.441 13.9967 10.6935 13.3579C10.9594 12.6967 11.302 12.1338 11.8655 11.5798C12.429 11.0169 12.9971 10.6774 13.6597 10.4182C14.3044 10.1681 15.0347 10.0028 16.1166 9.95362C17.194 9.90448 17.5457 9.89107 20.2956 9.89107C23.0455 9.89107 23.3881 9.90448 24.4655 9.95362C25.5429 10.0028 26.2777 10.1681 26.9269 10.4182C27.5986 10.6818 28.1621 11.0214 28.7211 11.5798C29.2846 12.1382 29.6317 12.7011 29.8932 13.3579C30.1411 13.9967 30.3124 14.7205 30.362 15.7927C30.4116 16.8693 30.4251 17.2089 30.4251 19.934C30.4251 22.6592 30.4071 23.0032 30.362 24.0754H30.3665Z" fill="#16384E"/>
</g>
</svg>
