<svg width="30" height="15" viewBox="0 0 30 15" fill="none" xmlns="http://www.w3.org/2000/svg">
<g clip-path="url(#clip0_3326_1713)">
<path fill-rule="evenodd" clip-rule="evenodd" d="M7.39998 13.3H14.2L17.3 1.69995H7.39998C4.19998 1.69995 1.59998 4.29995 1.59998 7.49995C1.59998 10.7 4.19998 13.3 7.39998 13.3Z" fill="white"/>
<path fill-rule="evenodd" clip-rule="evenodd" d="M22.6 0.5H7.40002C3.50002 0.5 0.400024 3.6 0.400024 7.5C0.400024 11.4 3.50002 14.5 7.40002 14.5H22.6C26.5 14.5 29.6 11.4 29.6 7.5C29.6 3.6 26.4 0.5 22.6 0.5ZM1.60002 7.5C1.60002 4.3 4.20002 1.7 7.40002 1.7H17.3L14.2 13.3H7.40002C4.20002 13.3 1.60002 10.7 1.60002 7.5Z" fill="#0066FF"/>
<path d="M24.6 4.49998C24.8 4.69998 24.8 5.09998 24.6 5.29998L22.5 7.49998L24.7 9.69998C24.9 9.89998 24.9 10.3 24.7 10.5C24.5 10.7 24.1 10.7 23.9 10.5L21.7 8.29998L19.5 10.5C19.3 10.7 18.9 10.7 18.7 10.5C18.5 10.3 18.5 9.89998 18.7 9.69998L20.8 7.49998L18.6 5.29998C18.4 5.09998 18.4 4.69998 18.6 4.49998C18.8 4.29998 19.2 4.29998 19.4 4.49998L21.6 6.69998L23.8 4.49998C24 4.29998 24.4 4.29998 24.6 4.49998Z" fill="white"/>
<path d="M12.7 4.59995C12.9 4.79995 13 5.19995 12.8 5.39995L8.6 10.3C8.5 10.4 8.4 10.5 8.3 10.5C8.1 10.6 7.8 10.6 7.6 10.4L5.4 8.19995C5.2 7.99995 5.2 7.59995 5.4 7.39995C5.6 7.19995 6 7.19995 6.2 7.39995L8 9.09995L11.8 4.59995C12 4.39995 12.4 4.39995 12.7 4.59995Z" fill="#0066FF"/>
</g>
<defs>
<clipPath id="clip0_3326_1713">
<rect width="30" height="14" fill="white" transform="translate(0 0.5)"/>
</clipPath>
</defs>
</svg>
