<svg width="41" height="40" viewBox="0 0 41 40" fill="none" xmlns="http://www.w3.org/2000/svg">
<g id="Group">
<path id="Vector" d="M18.5821 15.4443L16.1342 11.973H14.908L13.6818 11.9641L13.7179 12.0177C13.7359 12.0489 14.2408 12.7637 14.8359 13.6081C15.9674 15.2075 20.4033 21.5022 23.2569 25.5542C24.1675 26.8498 24.9249 27.9175 24.9384 27.931C24.9564 27.9488 25.2224 27.9533 26.1781 27.9533H27.3953L24.2126 23.4366C22.4635 20.9527 19.93 17.3608 18.5821 15.4487V15.4443Z" fill="#16384E"/>
<path id="Vector_2" d="M20.5343 0C9.42197 0 0.414917 8.92609 0.414917 19.9385C0.414917 30.9509 9.42197 39.877 20.5343 39.877C31.6466 39.877 40.6536 30.9509 40.6536 19.9385C40.6536 8.92609 31.6466 0 20.5343 0ZM26.8951 29.1058H24.2083L24.1542 29.0299C24.1272 28.9897 23.0182 27.3903 21.6928 25.4782C20.3675 23.5661 19.2765 21.998 19.2675 21.998C19.2585 21.998 19.0782 22.1991 18.8663 22.4448C18.6544 22.6905 18.4696 22.9005 18.4606 22.9139C18.447 22.9273 18.154 23.2623 17.8114 23.6644C17.4643 24.062 17.1487 24.4284 17.1082 24.473C17.0676 24.5177 16.991 24.6026 16.9414 24.6651C16.8061 24.8215 15.2013 26.6755 14.9894 26.9168C14.8902 27.0285 14.4259 27.5646 13.9525 28.1141L13.0915 29.1103H12.3071C11.8022 29.1103 11.5227 29.1014 11.5227 29.0924C11.5227 29.0835 11.5858 29.0031 11.6625 28.9137C11.7391 28.8244 12.1629 28.3374 12.6046 27.8281C13.4341 26.8721 13.5919 26.6889 14.6783 25.4335C15.03 25.027 15.5574 24.4194 15.8549 24.0799C16.1525 23.7404 16.5988 23.2221 16.8557 22.9273C17.1127 22.6324 17.5184 22.1633 17.7573 21.8863C17.9962 21.6094 18.2757 21.2877 18.3749 21.176C18.4741 21.0643 18.5552 20.966 18.5552 20.9571C18.5552 20.9482 18.3794 20.6891 18.163 20.3763C17.9467 20.0636 16.4094 17.8432 14.746 15.4442C13.0825 13.0451 11.676 11.0124 11.6129 10.9275L11.5002 10.7712H14.196H16.8918L19.1954 14.095C20.4621 15.9222 21.5125 17.4367 21.5305 17.459C21.5621 17.4948 21.5801 17.4814 21.9363 17.0659C22.7522 16.1277 22.9325 15.9222 23.1038 15.7167C23.203 15.6006 23.2932 15.4978 23.2977 15.4933C23.3067 15.4889 23.6448 15.0957 24.0505 14.6266C24.4608 14.1531 24.8575 13.6974 24.9341 13.6036C25.0107 13.5098 25.1234 13.3891 25.1775 13.3221C25.2316 13.2551 25.3669 13.1032 25.4751 12.9781C25.7185 12.7011 26.566 11.7183 27.0394 11.1732L27.391 10.7622H28.1844C28.9327 10.7622 28.9778 10.7622 28.9508 10.798C28.9372 10.8158 28.6442 11.1554 28.3016 11.5485C27.959 11.9417 27.418 12.5671 27.1025 12.9334C26.7869 13.2998 26.4759 13.6527 26.4173 13.7197C26.3587 13.7867 26.1062 14.0771 25.8583 14.3675C25.6103 14.6579 25.1054 15.2387 24.7403 15.6586C22.6125 18.1158 22.2879 18.491 22.2789 18.5134C22.2699 18.5357 22.5854 18.9959 24.9612 22.4269C28.2655 27.1893 29.5503 29.0522 29.5594 29.0746C29.5684 29.0969 29.0905 29.1014 26.8816 29.1014L26.8951 29.1058Z" fill="#16384E"/>
</g>
</svg>
