<svg width="14" height="12" viewBox="0 0 14 12" fill="none" xmlns="http://www.w3.org/2000/svg">
<g clip-path="url(#clip0_2061_3137)">
<path d="M13.6256 0.905829C13.5362 0.71143 13.309 0.620543 13.1129 0.692495C12.4934 0.928551 11.8777 1.17723 11.2844 1.47261C10.3881 1.922 9.5229 2.44334 8.70733 3.03285C7.55288 3.86725 6.48656 4.83798 5.56424 5.92989C5.33707 6.20255 5.1099 6.479 4.91377 6.77818C4.36509 6.19372 3.54456 5.46788 2.99216 5.11822C1.99287 4.4921 0.686974 5.00966 0.36174 6.15711C0.254984 6.54212 0.477186 6.77439 0.758972 6.97762C1.07055 7.20484 1.37468 7.45352 1.66392 7.71609C2.31935 8.31443 2.89906 9.00366 3.39808 9.74338C3.84373 10.4011 4.14289 11.2809 5.04783 11.3352H5.13225C5.6983 11.3352 6.22463 10.9729 6.42573 10.4288C6.50642 10.1385 6.60821 9.82543 6.72862 9.51743C6.84903 9.20942 6.9831 8.90015 7.12585 8.59719C7.41509 7.99001 7.75025 7.39167 8.12017 6.81478C8.4901 6.23916 8.90098 5.68121 9.34166 5.14599C10.5147 3.73975 11.9237 2.43451 13.4754 1.44106C13.6541 1.32745 13.7162 1.10149 13.6268 0.910878V0.905829H13.6256Z" fill="#0881C7"/>
</g>
<defs>
<clipPath id="clip0_2061_3137">
<rect width="13.3333" height="10.6667" fill="white" transform="translate(0.333496 0.666992)"/>
</clipPath>
</defs>
</svg>
