<svg width="271" height="217" viewBox="0 0 271 217" fill="none" xmlns="http://www.w3.org/2000/svg">
<path d="M271 0H0V217H271V0Z" fill="#029ABC"/>
<path d="M62.2045 83.646V86.8329H55.3148V103.835H51.5165V86.8329H44.6268V83.646H62.221H62.2045Z" fill="white"/>
<path d="M63.9146 93.7486C63.9146 87.6871 67.713 83.2354 74.652 83.2354C81.591 83.2354 85.3894 87.6871 85.3894 93.7486C85.3894 99.8266 81.591 104.262 74.652 104.262C67.713 104.262 63.9146 99.8266 63.9146 93.7486ZM81.5417 93.7486C81.5417 89.5269 79.3219 86.4222 74.6685 86.4058C69.9986 86.4058 67.7952 89.5105 67.7952 93.7322C67.7952 97.9539 70.015 101.075 74.6685 101.075C79.3219 101.075 81.5417 97.9703 81.5417 93.7322V93.7486Z" fill="white"/>
<path d="M104.71 83.646V86.8329H97.8204V103.835H94.0221V86.8329H87.1324V83.646H104.727H104.71Z" fill="white"/>
<path d="M107.653 103.835H103.691L112.208 83.646H115.316L123.834 103.835H119.871L117.947 99.1366H109.577L107.653 103.835ZM110.86 95.9334H116.631L113.737 88.8698L110.843 95.9334H110.86Z" fill="white"/>
<path d="M130.707 100.664H140.622V103.851H126.908V83.6625H130.707V100.664Z" fill="white"/>
<path d="M155.881 100.664H165.797V103.851H152.083V83.6625H155.881V100.664Z" fill="white"/>
<path d="M183.013 91.9581V95.1449H172.966V100.664H183.637V103.851H169.167V83.6625H183.506V86.8493H172.982V91.9745H183.029L183.013 91.9581Z" fill="white"/>
<path d="M189.984 103.851H186.022L194.539 83.6625H197.647L206.165 103.851H202.202L200.278 99.1531H191.908L189.984 103.851ZM193.191 95.9498H198.962L196.068 88.8862L193.174 95.9498H193.191Z" fill="white"/>
<path d="M208.664 83.6624H213.515L222.575 98.5781V83.6624H226.373V103.851H221.523L212.462 88.9355V103.851H208.664V83.6624Z" fill="white"/>
<path d="M127.221 68.9439V47.6546L146.903 68.9439H160.617V39.8025H149.288V61.8475L128.52 39.8025H115.711V68.9439H127.221ZM213.104 68.9603V63.4409H184.657C180.217 63.3587 180.694 60.6483 180.694 58.6606L180.645 51.2192C180.645 49.3137 180.234 46.209 183.999 45.2727C184.427 45.1577 185.084 45.1412 185.084 45.1412H213.104V39.8189H178.392C170.664 39.8189 166.421 46.8989 166.421 54.7674C166.421 62.3731 169.365 68.9603 178.03 68.9603H213.104ZM108.311 68.9439V52.2048H83.9753V57.3958H97.4916V59.597C97.4916 62.5374 95.1896 63.9501 92.1476 63.9501C90.0922 63.9501 76.9212 63.9501 76.9212 63.9501C72.2513 63.9501 72.4487 60.6319 72.4487 58.6278L72.3829 51.1864C72.3829 49.2973 71.9225 46.2254 76.099 45.2562C76.6581 45.1248 77.6118 45.1084 77.6118 45.1084H108.443V39.8025H71.4292C62.7143 39.8025 57.9293 46.8825 57.9293 54.7346C57.9293 62.3238 61.2508 68.9439 71.0181 68.9439H108.311Z" fill="white"/>
<path d="M231.783 83.6132C233.608 83.6132 235.105 85.108 235.105 86.9314C235.105 88.7548 233.608 90.2496 231.783 90.2496C229.958 90.2496 228.461 88.7712 228.461 86.9314C228.461 85.108 229.958 83.6132 231.783 83.6132ZM231.783 89.5433C233.23 89.5433 234.414 88.377 234.414 86.915C234.414 85.4694 233.246 84.2867 231.783 84.2867C230.336 84.2867 229.152 85.453 229.152 86.915C229.152 88.377 230.32 89.5433 231.783 89.5433ZM230.632 88.7055V85.108H232.063C232.852 85.108 233.148 85.6665 233.148 86.2415C233.148 86.6686 233 87.1614 232.474 87.2928L233.23 88.7219H232.49L231.767 87.3749H231.306V88.7219H230.632V88.7055ZM231.306 85.7158V86.7507H232.063C232.359 86.7507 232.474 86.5043 232.474 86.2415C232.474 85.9786 232.359 85.7158 232.063 85.7158H231.306Z" fill="white"/>
<path d="M109.314 180.45C109.117 179.448 108.311 178.939 107.325 178.939C105.631 178.939 104.924 180.335 104.924 181.797C104.924 183.423 105.647 184.77 107.341 184.77C108.574 184.77 109.298 183.9 109.38 182.733H110.317C110.136 184.491 109.035 185.575 107.242 185.575C105.039 185.575 103.97 183.949 103.97 181.879C103.97 179.809 105.138 178.15 107.325 178.15C108.805 178.15 110.021 178.939 110.235 180.45H109.298H109.314Z" fill="white"/>
<path d="M115.974 178.331H119.312C120.644 178.331 121.466 179.054 121.466 180.187C121.466 181.041 121.088 181.748 120.233 181.978C121.055 182.158 121.219 182.766 121.301 183.456C121.367 184.146 121.318 184.918 121.712 185.411H120.66C120.397 185.115 120.545 184.36 120.397 183.67C120.298 182.98 120.134 182.388 119.213 182.388H116.911V185.411H115.974V178.331ZM118.884 181.584C119.772 181.584 120.529 181.354 120.529 180.319C120.529 179.629 120.15 179.103 119.262 179.103H116.911V181.567H118.884V181.584Z" fill="white"/>
<path d="M129.161 178.331H130.197L132.976 185.411H131.94L131.167 183.275H128.175L127.385 185.411H126.415L129.194 178.331H129.161ZM128.454 182.487H130.855L129.671 179.185H129.654L128.454 182.487Z" fill="white"/>
<path d="M138.172 178.331H139.109V185.411H138.172V178.331Z" fill="white"/>
<path d="M149.88 184.524C149.337 185.263 148.433 185.575 147.61 185.575C145.489 185.575 144.24 183.85 144.24 181.994C144.24 179.924 145.374 178.15 147.61 178.15C149.156 178.15 150.389 178.84 150.652 180.499H149.715C149.534 179.432 148.663 178.939 147.61 178.939C145.9 178.939 145.177 180.434 145.177 181.945C145.177 183.456 146.032 184.77 147.61 184.77C149.074 184.77 149.945 183.752 149.88 182.454H147.61V181.666H150.718V185.395H150.126L149.88 184.508V184.524Z" fill="white"/>
<path d="M198.321 157.321C197.696 155.481 193.059 154.988 194.885 158.389C195.427 159.424 196.545 160.179 195.904 161.888C195.411 163.218 194.605 163.76 191.678 164.401C188.537 165.091 187.403 165.633 184.213 166.487C183.506 162.808 182.996 158.734 184.344 154.939C184.821 153.576 184.213 149.469 181.039 150.98C180.447 151.259 179.987 151.834 179.806 152.081C176.452 156.91 176.567 165.189 170.253 167.062C169.99 167.144 169.644 167.111 169.398 166.931C166.405 164.779 169.217 159.752 168.723 156.549C168.608 155.777 166.158 155.842 165.057 157.042C161.867 160.524 160.979 164.943 155.404 164.746C155.273 164.746 154.977 164.68 154.862 164.352C154.056 161.904 155.569 157.107 153.925 155.481C153.826 155.383 153.629 155.202 153.218 155.284C149.008 156.105 147.841 161.526 145.16 162.61C144.864 160.196 147.249 156.04 144.766 154.988C144.667 154.955 144.355 154.84 144.026 154.923C140.918 155.744 136.659 167.867 132.137 166.126C128.865 164.877 132.137 158.586 131.48 155.76C131.447 155.613 131.266 155.547 131.167 155.53C126.464 154.693 125.165 161.526 122.387 162.578C122.354 162.578 122.271 162.627 122.255 162.479C122.074 160.031 124.327 156.007 121.844 154.972C121.762 154.939 121.433 154.89 121.252 155.005C120.874 155.268 120.265 155.941 120.134 156.072C119.657 156.532 119.213 157.025 118.769 157.534C117.865 158.619 117.026 159.752 116.204 160.902C115.349 162.085 114.773 163.136 113.491 164.352C112.751 165.058 111.781 165.732 110.942 166.29C110.087 166.865 109.199 167.391 108.262 167.818C106.996 168.409 105.664 168.853 104.299 169.148C104.085 169.198 103.822 169.28 103.608 169.28C102.819 169.28 101.915 168.935 101.915 166.454C101.915 165.272 101.964 164.976 104.299 163.235L104.973 162.725L105.828 162.052C107.308 160.918 112.06 157.469 112.06 154.512C112.06 152.754 110.367 151.736 108.262 151.736C107.588 151.736 106.914 151.834 106.272 152.031C104.825 152.459 103.428 153.05 102.079 153.707C100.945 154.249 99.8759 154.89 98.8728 155.645C98.5768 155.859 98.2973 156.089 98.0178 156.319C97.0476 157.107 96.1432 157.962 95.2553 158.832C94.3838 159.686 93.5452 160.59 92.6737 161.444C91.8023 162.298 90.865 163.103 89.9277 163.875C89.8126 163.974 89.6975 164.072 89.5824 164.155C89.3029 161.625 86.4911 160.935 86.82 156.976C86.9844 154.857 89.5495 153.592 88.9247 151.358C87.675 146.873 80.5222 150.257 83.3011 156.286C82.9558 157.222 81.8377 158.684 80.5716 159.571C79.7494 160.146 78.8779 159.079 78.7628 160.524C78.7628 160.639 78.7299 161.001 78.8944 161.296C80.0618 163.333 83.7451 160.179 84.3535 160.508C85.373 163.481 86.228 163.892 87.4777 166.635C83.8438 172.532 75.803 179.415 75.8688 188.779C75.9017 194.134 80.2263 199.029 86.0636 197.912C95.6828 196.072 94.9265 175.095 91.3418 166.98C93.2821 163.842 95.4362 160.623 99.0866 158.192C99.2675 158.077 99.4812 157.945 99.695 157.797C99.2181 158.668 98.807 159.686 98.5275 160.82C98.1 162.331 98.2151 163.465 97.1627 163.99C97.0805 164.04 96.8667 164.155 96.7681 164.434C96.7188 164.614 96.7023 164.812 96.7023 165.009C96.7023 165.682 97.1463 166.142 97.7218 166.142C97.8369 166.142 97.8862 166.093 98.0013 166.093V166.208C98.0013 169.033 98.7413 172.828 103.049 172.828C105.236 172.828 107.456 171.695 109.331 170.692C110.021 170.331 110.712 169.937 111.386 169.543C113.672 168.196 115.546 166.471 117.519 164.729C117.914 164.368 118.325 164.007 118.769 163.678C118.621 165.896 119.081 167.473 120.265 168.409C120.479 168.573 120.693 168.59 120.759 168.573C120.841 168.573 120.907 168.557 120.972 168.541C124.82 167.966 125.922 163.087 128.273 162.265C126.53 173.206 139.8 167.801 141.642 163.678C141.494 165.847 141.954 167.423 143.056 168.36C143.302 168.573 143.763 168.573 143.944 168.541C147.709 167.9 148.811 163.087 151.129 162.282C149.616 172.992 162.195 168.278 164.859 163.333C165.089 178.068 177.356 164.598 180.349 160.869C180.25 163.547 180.875 165.485 181.056 167.9C171.782 172.647 159.055 176.113 159.236 189.698C159.384 201.181 170.072 206.388 178.852 199.785C186.104 194.331 184.657 181.386 184.558 169.313C191.399 166.471 201.018 165.321 198.305 157.337M83.6135 194.052C81.1306 193.756 79.8974 190.848 79.7494 188.434C79.289 181.321 86.2609 173.764 88.5465 170.15C92.0489 176.113 91.6871 195.004 83.6135 194.052ZM108.278 154.66C109.068 154.66 109.183 155.218 109.183 155.514C109.183 157.107 106.009 158.865 105.269 159.374L104.414 159.949C103.28 160.738 103.214 160.853 102.77 160.918C103.904 158.257 106.108 154.693 108.278 154.693V154.66ZM173.64 199.67C163.823 204.187 160.255 190.569 164.169 182.996C167.49 176.557 176.008 173.551 180.299 171.12C180.645 170.922 181.138 170.709 181.138 170.709C181.779 180.696 180.743 196.384 173.656 199.653L173.64 199.67Z" fill="white"/>
<path d="M93.2163 138.627C94.5318 133.255 86.1951 132.73 84.8797 136.935C84.6659 137.625 84.6823 138.019 85.0934 138.676C86.3267 140.631 89.2042 143.292 92.5257 139.859C92.8382 139.531 93.1012 139.087 93.2163 138.627Z" fill="white"/>
<path d="M187.107 194.512C188.472 194.512 189.557 195.563 189.557 196.861C189.557 198.158 188.472 199.226 187.107 199.226C185.742 199.226 184.64 198.191 184.64 196.861C184.64 195.53 185.742 194.512 187.107 194.512ZM187.09 194.873C185.989 194.873 185.101 195.76 185.101 196.861C185.101 197.961 186.005 198.848 187.107 198.848C188.209 198.848 189.097 197.978 189.097 196.861C189.097 195.744 188.209 194.873 187.107 194.873H187.09ZM186.63 198.24H186.186V195.612C186.416 195.579 186.647 195.546 186.975 195.546C187.403 195.546 187.666 195.629 187.83 195.744C187.995 195.859 188.077 196.039 188.077 196.286C188.077 196.631 187.83 196.844 187.534 196.926C187.781 196.992 187.946 197.189 187.995 197.583C188.061 197.994 188.126 198.142 188.176 198.24H187.715C187.65 198.158 187.584 197.912 187.534 197.583C187.469 197.238 187.288 197.123 186.942 197.123H186.63V198.257V198.24ZM186.63 196.778H186.942C187.304 196.778 187.617 196.663 187.617 196.335C187.617 196.105 187.436 195.875 186.942 195.875C186.794 195.875 186.696 195.875 186.63 195.891V196.778Z" fill="white"/>
<g style="mix-blend-mode:screen" opacity="0.4">
<path d="M228.018 120.919H46.2546V122.561H228.018V120.919Z" fill="#029ABC"/>
</g>
</svg>
