<?xml version="1.0" encoding="UTF-8"?>
<svg xmlns="http://www.w3.org/2000/svg" viewBox="0 0 269.83 85.72">
  <defs>
    <style>
      .cls-1 {
        isolation: isolate;
      }

      .cls-2 {
        fill: #fff;
      }

      .cls-3 {
        fill: #00a3c8;
      }

      .cls-4 {
        mix-blend-mode: screen;
        opacity: .4;
      }
    </style>
  </defs>
  <g class="cls-1">
    <g id="Layer_1">
      <rect class="cls-3" width="269.83" height="85.72"/>
      <g>
        <g>
          <g>
            <path class="cls-2" d="M37.83,50.92v1.94s-4.19,0-4.19,0v10.35s-2.31,0-2.31,0v-10.35s-4.19,0-4.19,0v-1.94s10.7,0,10.7,0Z"/>
            <path class="cls-2" d="M38.87,57.07c0-3.69,2.31-6.4,6.53-6.4s6.53,2.71,6.53,6.4c0,3.7-2.31,6.4-6.53,6.4-4.22,0-6.53-2.7-6.53-6.4ZM49.59,57.07c0-2.57-1.35-4.46-4.18-4.47-2.84,0-4.18,1.89-4.18,4.46,0,2.57,1.35,4.47,4.18,4.47s4.18-1.89,4.18-4.47Z"/>
            <path class="cls-2" d="M63.68,50.92v1.94s-4.19,0-4.19,0v10.35s-2.31,0-2.31,0v-10.35s-4.19,0-4.19,0v-1.94s10.7,0,10.7,0Z"/>
            <path class="cls-2" d="M65.47,63.21h-2.41s5.18-12.29,5.18-12.29h1.89s5.18,12.29,5.18,12.29h-2.41s-1.17-2.86-1.17-2.86h-5.09s-1.17,2.86-1.17,2.86ZM67.42,58.4h3.51s-1.76-4.3-1.76-4.3l-1.76,4.3Z"/>
            <path class="cls-2" d="M79.49,61.28h6.03s0,1.94,0,1.94h-8.34s0-12.29,0-12.29h2.31s0,10.35,0,10.35Z"/>
            <path class="cls-2" d="M94.8,61.28h6.03s0,1.94,0,1.94h-8.34s0-12.29,0-12.29h2.31s0,10.35,0,10.35Z"/>
            <path class="cls-2" d="M111.3,55.98v1.94s-6.11,0-6.11,0v3.36s6.49,0,6.49,0v1.94s-8.8,0-8.8,0v-12.29s8.72,0,8.72,0v1.94s-6.4,0-6.4,0v3.12s6.11,0,6.11,0Z"/>
            <path class="cls-2" d="M115.54,63.22h-2.41s5.18-12.29,5.18-12.29h1.89s5.18,12.29,5.18,12.29h-2.41s-1.17-2.86-1.17-2.86h-5.09s-1.17,2.86-1.17,2.86ZM117.49,58.41h3.51s-1.76-4.3-1.76-4.3l-1.76,4.3Z"/>
          </g>
          <path class="cls-2" d="M126.9,50.93h2.95s5.51,9.08,5.51,9.08v-9.08s2.31,0,2.31,0v12.29s-2.95,0-2.95,0l-5.51-9.08v9.08s-2.31,0-2.31,0v-12.29Z"/>
          <path class="cls-2" d="M77.37,41.97v-12.96s11.97,12.96,11.97,12.96h8.34s0-17.74,0-17.74h-6.89s0,13.42,0,13.42l-12.63-13.42h-7.79s0,17.74,0,17.74h7ZM129.6,41.98v-3.36s-17.3,0-17.3,0c-2.7-.05-2.41-1.7-2.41-2.91l-.03-4.53c0-1.16-.25-3.05,2.04-3.62.26-.07.66-.08.66-.08h17.04s0-3.24,0-3.24h-21.11c-4.7,0-7.28,4.31-7.28,9.1,0,4.63,1.79,8.64,7.06,8.64h21.33ZM65.87,41.97v-10.19s-14.8,0-14.8,0v3.16s8.22,0,8.22,0v1.34c0,1.79-1.4,2.65-3.25,2.65-1.25,0-9.26,0-9.26,0-2.84,0-2.72-2.02-2.72-3.24l-.04-4.53c0-1.15-.28-3.02,2.26-3.61.34-.08.92-.09.92-.09h18.75s0-3.23,0-3.23h-22.51c-5.3,0-8.21,4.31-8.21,9.09,0,4.62,2.02,8.65,7.96,8.65h22.68Z"/>
        </g>
        <path class="cls-2" d="M140.96,50.9c1.11,0,2.02.91,2.02,2.02,0,1.11-.91,2.02-2.02,2.02-1.11,0-2.02-.9-2.02-2.02,0-1.11.91-2.02,2.02-2.02ZM140.96,54.51c.88,0,1.6-.71,1.6-1.6,0-.88-.71-1.6-1.6-1.6-.88,0-1.6.71-1.6,1.6s.71,1.6,1.6,1.6ZM140.26,54v-2.19s.87,0,.87,0c.48,0,.66.34.66.69,0,.26-.09.56-.41.64l.46.87h-.45s-.44-.82-.44-.82h-.28s0,.82,0,.82h-.41ZM140.67,52.18v.63s.46,0,.46,0c.18,0,.25-.15.25-.31s-.07-.32-.25-.32h-.46Z"/>
      </g>
      <g>
        <g>
          <path class="cls-2" d="M188.51,52.43c-.12-.61-.61-.92-1.21-.92-1.03,0-1.46.85-1.46,1.74,0,.99.44,1.81,1.47,1.81.75,0,1.19-.53,1.24-1.24h.57c-.11,1.07-.78,1.73-1.87,1.73-1.34,0-1.99-.99-1.99-2.25s.71-2.27,2.04-2.27c.9,0,1.64.48,1.77,1.4h-.57Z"/>
          <path class="cls-2" d="M192.55,51.13h2.03c.81,0,1.31.44,1.31,1.13,0,.52-.23.95-.75,1.09h0c.5.11.6.48.65.9.04.42.01.89.25,1.19h-.64c-.16-.18-.07-.64-.16-1.06-.06-.42-.16-.78-.72-.78h-1.4v1.84h-.57v-4.31ZM194.32,53.11c.54,0,1-.14,1-.77,0-.42-.23-.74-.77-.74h-1.43v1.5h1.2Z"/>
          <path class="cls-2" d="M200.58,51.13h.63l1.69,4.31h-.63l-.47-1.3h-1.82l-.48,1.3h-.59l1.69-4.31ZM200.15,53.66h1.46l-.72-2.01h-.01l-.73,2.01Z"/>
          <path class="cls-2" d="M206.06,51.13h.57v4.31h-.57v-4.31Z"/>
          <path class="cls-2" d="M213.18,54.9c-.33.45-.88.64-1.38.64-1.29,0-2.05-1.05-2.05-2.18,0-1.26.69-2.34,2.05-2.34.94,0,1.69.42,1.85,1.43h-.57c-.11-.65-.64-.95-1.28-.95-1.04,0-1.48.91-1.48,1.83s.52,1.72,1.48,1.72c.89,0,1.42-.62,1.38-1.41h-1.38v-.48h1.89v2.27h-.36l-.15-.54Z"/>
        </g>
        <path class="cls-2" d="M242.63,38.34c-.38-1.12-3.2-1.42-2.09.65.33.63,1.01,1.09.62,2.13-.3.81-.79,1.14-2.57,1.53-1.91.42-2.6.75-4.54,1.27-.43-2.24-.74-4.72.08-7.03.29-.83-.08-3.33-2.01-2.41-.36.17-.64.52-.75.67-2.04,2.94-1.97,7.98-5.81,9.12-.16.05-.37.03-.52-.08-1.82-1.31-.11-4.37-.41-6.32-.07-.47-1.56-.43-2.23.3-1.94,2.12-2.48,4.81-5.87,4.69-.08,0-.26-.04-.33-.24-.49-1.49.43-4.41-.57-5.4-.06-.06-.18-.17-.43-.12-2.56.5-3.27,3.8-4.9,4.46-.18-1.47,1.27-4-.24-4.64-.06-.02-.25-.09-.45-.04-1.89.5-4.48,7.88-7.23,6.82-1.99-.76,0-4.59-.4-6.31-.02-.09-.13-.13-.19-.14-2.86-.51-3.65,3.65-5.34,4.29-.02,0-.07.03-.08-.06-.11-1.49,1.26-3.94-.25-4.57-.05-.02-.25-.05-.36.02-.23.16-.6.57-.68.65-.29.28-.56.58-.83.89-.55.66-1.06,1.35-1.56,2.05-.52.72-.87,1.36-1.65,2.1-.45.43-1.04.84-1.55,1.18-.52.35-1.06.67-1.63.93-.77.36-1.58.63-2.41.81-.13.03-.29.08-.42.08-.48,0-1.03-.21-1.03-1.72,0-.72.03-.9,1.45-1.96l.41-.31.52-.41c.9-.69,3.79-2.79,3.79-4.59,0-1.07-1.03-1.69-2.31-1.69-.41,0-.82.06-1.21.18-.88.26-1.73.62-2.55,1.02-.69.33-1.34.72-1.95,1.18-.18.13-.35.27-.52.41-.59.48-1.14,1-1.68,1.53-.53.52-1.04,1.07-1.57,1.59-.53.52-1.1,1.01-1.67,1.48-.07.06-.14.12-.21.17-.17-1.54-1.88-1.96-1.68-4.37.1-1.29,1.66-2.06,1.28-3.42-.76-2.73-5.11-.67-3.42,3-.21.57-.89,1.46-1.66,2-.5.35-1.03-.3-1.1.58,0,.07-.02.29.08.47.71,1.24,2.95-.68,3.32-.48.62,1.81,1.14,2.06,1.9,3.73-2.21,3.59-7.1,7.78-7.06,13.48.02,3.26,2.65,6.24,6.2,5.56,5.85-1.12,5.39-13.89,3.21-18.83,1.18-1.91,2.49-3.87,4.71-5.35.11-.07.24-.15.37-.24-.29.53-.54,1.15-.71,1.84-.26.92-.19,1.61-.83,1.93-.05.03-.18.1-.24.27-.03.11-.04.23-.04.35,0,.41.27.69.62.69.07,0,.1-.03.17-.03v.07c0,1.72.45,4.03,3.07,4.03,1.33,0,2.68-.69,3.82-1.3.42-.22.84-.46,1.25-.7,1.39-.82,2.53-1.87,3.73-2.93.24-.22.49-.44.76-.64-.09,1.35.19,2.31.91,2.88.13.1.26.11.3.1.05,0,.09-.01.13-.02,2.34-.35,3.01-3.32,4.44-3.82-1.06,6.66,7.01,3.37,8.13.86-.09,1.32.19,2.28.86,2.85.15.13.43.13.54.11,2.29-.39,2.96-3.32,4.37-3.81-.92,6.52,6.73,3.65,8.35.64.14,8.97,7.6.77,9.42-1.5-.06,1.63.32,2.81.43,4.28-5.64,2.89-13.38,5-13.27,13.27.09,6.99,6.59,10.16,11.93,6.14,4.41-3.32,3.53-11.2,3.47-18.55,4.16-1.73,10.01-2.43,8.36-7.29M172.87,60.7c-1.51-.18-2.26-1.95-2.35-3.42-.28-4.33,3.96-8.93,5.35-11.13,2.13,3.63,1.91,15.13-3,14.55ZM187.88,36.72c.48,0,.55.34.55.52,0,.97-1.93,2.04-2.38,2.35l-.52.35c-.69.48-.73.55-1,.59.69-1.62,2.03-3.79,3.35-3.79ZM227.63,64.13c-5.97,2.75-8.14-5.54-5.76-10.15,2.02-3.92,7.2-5.75,9.81-7.23.21-.12.51-.25.51-.25.39,6.08-.24,15.63-4.55,17.62Z"/>
        <path class="cls-2" d="M178.72,26.96c.8-3.27-4.27-3.59-5.07-1.03-.13.42-.12.66.13,1.06.75,1.19,2.5,2.81,4.52.72.19-.2.35-.47.42-.75Z"/>
        <path class="cls-2" d="M235.81,60.98c.83,0,1.49.64,1.49,1.43s-.66,1.44-1.49,1.44-1.5-.63-1.5-1.44.67-1.43,1.5-1.43h0ZM235.8,61.21c-.67,0-1.21.54-1.21,1.21s.55,1.21,1.22,1.21c.67,0,1.21-.53,1.21-1.21s-.54-1.21-1.21-1.21h0ZM235.52,63.25h-.27v-1.6c.14-.02.28-.04.48-.04.26,0,.42.05.52.12.1.07.15.18.15.33,0,.21-.15.34-.33.39h0c.15.04.25.16.28.4.04.25.08.34.11.4h-.28c-.04-.05-.08-.2-.11-.4-.04-.21-.15-.28-.36-.28h-.19v.69ZM235.52,62.36h.19c.22,0,.41-.07.41-.27,0-.14-.11-.28-.41-.28-.09,0-.15,0-.19.01v.54Z"/>
      </g>
      <g class="cls-4">
        <rect class="cls-3" x="153.48" y="23.23" width="1" height="40.98"/>
      </g>
    </g>
  </g>
</svg>