<svg width="20" height="20" viewBox="0 0 20 20" fill="none" xmlns="http://www.w3.org/2000/svg">
<rect width="20" height="20" fill="white"/>
<circle cx="10" cy="10" r="10" fill="#0875B5"/>
<path d="M8.57186 10.8456L12.4975 6.92001C12.5341 6.88334 12.5754 6.86501 12.6212 6.86501C12.6671 6.86501 12.706 6.88334 12.7381 6.92001L13.955 8.13688C13.9916 8.16897 14.01 8.20793 14.01 8.25376C14.01 8.29959 13.9916 8.34084 13.955 8.37751L8.57186 13.7675C8.53977 13.8042 8.49967 13.8225 8.45154 13.8225C8.40342 13.8225 8.36331 13.8042 8.33123 13.7675L5.69123 11.1275C5.65456 11.0908 5.63623 11.0496 5.63623 11.0038C5.63623 10.9579 5.65456 10.919 5.69123 10.8869L6.90811 9.67001C6.94019 9.63334 6.97915 9.61501 7.02498 9.61501C7.07081 9.61501 7.11206 9.63334 7.14873 9.67001L8.32436 10.8456C8.35644 10.8777 8.39769 10.8938 8.44811 10.8938C8.49852 10.8938 8.53977 10.8777 8.57186 10.8456Z" fill="white"/>
</svg>
